{
	"asset":{
		"generator":"Khronos glTF Blender I/O v4.3.47",
		"version":"2.0"
	},
	"scene":0,
	"scenes":[
		{
			"name":"Scene",
			"nodes":[
				4
			]
		}
	],
	"nodes":[
		{
			"mesh":0,
			"name":"Object_4"
		},
		{
			"children":[
				0
			],
			"name":"VR Gallery_0",
			"rotation":[
				0.70710688829422,
				0,
				0,
				0.7071066498756409
			],
			"scale":[
				0.029999971389770508,
				0.02999996766448021,
				0.02999996766448021
			]
		},
		{
			"children":[
				1
			],
			"name":"GLTF_SceneRootNode",
			"rotation":[
				0.70710688829422,
				0,
				0,
				0.7071066498756409
			]
		},
		{
			"children":[
				2
			],
			"name":"root"
		},
		{
			"children":[
				3
			],
			"name":"Sketchfab_model",
			"rotation":[
				-0.70710688829422,
				0,
				0,
				0.7071066498756409
			]
		}
	],
	"materials":[
		{
			"doubleSided":true,
			"name":"Joined",
			"normalTexture":{
				"index":0,
				"texCoord":1
			},
			"pbrMetallicRoughness":{
				"baseColorTexture":{
					"index":1
				},
				"metallicFactor":0,
				"roughnessFactor":0.6000000238418579
			}
		}
	],
	"meshes":[
		{
			"name":"Object_0",
			"primitives":[
				{
					"attributes":{
						"POSITION":0,
						"NORMAL":1,
						"TEXCOORD_0":2,
						"TEXCOORD_1":3,
						"TEXCOORD_2":4
					},
					"indices":5,
					"material":0
				}
			]
		}
	],
	"textures":[
		{
			"sampler":0,
			"source":0
		},
		{
			"sampler":0,
			"source":1
		}
	],
	"images":[
		{
			"mimeType":"image/png",
			"name":"Joined_normal",
			"uri":"Joined_normal.png"
		},
		{
			"mimeType":"image/png",
			"name":"Joined_baseColor",
			"uri":"Joined_baseColor.png"
		}
	],
	"accessors":[
		{
			"bufferView":0,
			"componentType":5126,
			"count":59221,
			"max":[
				216,
				216,
				0
			],
			"min":[
				-216,
				-216,
				-217.54600524902344
			],
			"type":"VEC3"
		},
		{
			"bufferView":1,
			"componentType":5126,
			"count":59221,
			"type":"VEC3"
		},
		{
			"bufferView":2,
			"componentType":5126,
			"count":59221,
			"type":"VEC2"
		},
		{
			"bufferView":3,
			"componentType":5126,
			"count":59221,
			"type":"VEC2"
		},
		{
			"bufferView":4,
			"componentType":5126,
			"count":59221,
			"type":"VEC2"
		},
		{
			"bufferView":5,
			"componentType":5123,
			"count":90486,
			"type":"SCALAR"
		}
	],
	"bufferViews":[
		{
			"buffer":0,
			"byteLength":710652,
			"byteOffset":0,
			"target":34962
		},
		{
			"buffer":0,
			"byteLength":710652,
			"byteOffset":710652,
			"target":34962
		},
		{
			"buffer":0,
			"byteLength":473768,
			"byteOffset":1421304,
			"target":34962
		},
		{
			"buffer":0,
			"byteLength":473768,
			"byteOffset":1895072,
			"target":34962
		},
		{
			"buffer":0,
			"byteLength":473768,
			"byteOffset":2368840,
			"target":34962
		},
		{
			"buffer":0,
			"byteLength":180972,
			"byteOffset":2842608,
			"target":34963
		}
	],
	"samplers":[
		{
			"magFilter":9729,
			"minFilter":9987
		}
	],
	"buffers":[
		{
			"byteLength":3023580,
			"uri":"scene.bin"
		}
	]
}
