{
  "accessors": [
    {
      "bufferView": 2,
      "componentType": 5126,
      "count": 59050,
      "max": [
        216.0,
        216.0,
        -0.0
      ],
      "min": [
        -216.0,
        -216.0,
        -217.54600524902344
      ],
      "type": "VEC3"
    },
    {
      "bufferView": 2,
      "byteOffset": 708600,
      "componentType": 5126,
      "count": 59050,
      "max": [
        1.0,
        1.0,
        1.0
      ],
      "min": [
        -1.0,
        -1.0,
        -1.0
      ],
      "type": "VEC3"
    },
    {
      "bufferView": 3,
      "componentType": 5126,
      "count": 59050,
      "max": [
        1.0,
        1.0,
        0.9036179184913635,
        1.0
      ],
      "min": [
        -1.0,
        -1.0,
        -0.9036179184913635,
        1.0
      ],
      "type": "VEC4"
    },
    {
      "bufferView": 1,
      "componentType": 5126,
      "count": 59050,
      "max": [
        0.9944324493408203,
        0.9944233894348145
      ],
      "min": [
        0.0019298389088362455,
        0.004051771946251392
      ],
      "type": "VEC2"
    },
    {
      "bufferView": 1,
      "byteOffset": 472400,
      "componentType": 5126,
      "count": 59050,
      "max": [
        0.9944324493408203,
        0.9944233894348145
      ],
      "min": [
        0.0019298389088362455,
        0.004051771946251392
      ],
      "type": "VEC2"
    },
    {
      "bufferView": 1,
      "byteOffset": 944800,
      "componentType": 5126,
      "count": 59050,
      "max": [
        432.0,
        432.0
      ],
      "min": [
        -432.0,
        -442.37298583984375
      ],
      "type": "VEC2"
    },
    {
      "bufferView": 0,
      "componentType": 5125,
      "count": 90486,
      "type": "SCALAR"
    }
  ],
  "asset": {
    "extras": {
      "author": "Marc Sawyer (https://sketchfab.com/whitewashstudio)",
      "license": "CC-BY-4.0 (http://creativecommons.org/licenses/by/4.0/)",
      "source": "https://sketchfab.com/3d-models/vr-gallery-light-baked-625f8c2d2d4448c590aae1ce659f6f91",
      "title": "VR Gallery - Light Baked"
    },
    "generator": "Sketchfab-12.66.0",
    "version": "2.0"
  },
  "bufferViews": [
    {
      "buffer": 0,
      "byteLength": 361944,
      "name": "floatBufferViews",
      "target": 34963
    },
    {
      "buffer": 0,
      "byteLength": 1417200,
      "byteOffset": 361944,
      "byteStride": 8,
      "name": "floatBufferViews",
      "target": 34962
    },
    {
      "buffer": 0,
      "byteLength": 1417200,
      "byteOffset": 1779144,
      "byteStride": 12,
      "name": "floatBufferViews",
      "target": 34962
    },
    {
      "buffer": 0,
      "byteLength": 944800,
      "byteOffset": 3196344,
      "byteStride": 16,
      "name": "floatBufferViews",
      "target": 34962
    }
  ],
  "buffers": [
    {
      "byteLength": 4141144,
      "uri": "scene.bin"
    }
  ],
  "images": [
    {
      "uri": "textures/Joined_baseColor.png"
    },
    {
      "uri": "textures/Joined_normal.png"
    }
  ],
  "materials": [
    {
      "doubleSided": true,
      "name": "Joined",
      "normalTexture": {
        "index": 1,
        "texCoord": 1
      },
      "pbrMetallicRoughness": {
        "baseColorTexture": {
          "index": 0
        },
        "metallicFactor": 0.0,
        "roughnessFactor": 0.6
      }
    }
  ],
  "meshes": [
    {
      "name": "Object_0",
      "primitives": [
        {
          "attributes": {
            "NORMAL": 1,
            "POSITION": 0,
            "TANGENT": 2,
            "TEXCOORD_0": 3,
            "TEXCOORD_1": 4,
            "TEXCOORD_2": 5
          },
          "indices": 6,
          "material": 0,
          "mode": 4
        }
      ]
    }
  ],
  "nodes": [
    {
      "children": [
        1
      ],
      "matrix": [
        1.0,
        0.0,
        0.0,
        0.0,
        0.0,
        2.220446049250313e-16,
        -1.0,
        0.0,
        0.0,
        1.0,
        2.220446049250313e-16,
        0.0,
        0.0,
        0.0,
        0.0,
        1.0
      ],
      "name": "Sketchfab_model"
    },
    {
      "children": [
        2
      ],
      "name": "root"
    },
    {
      "children": [
        3
      ],
      "matrix": [
        1.0,
        0.0,
        0.0,
        0.0,
        0.0,
        2.220446049250313e-16,
        1.0,
        0.0,
        0.0,
        -1.0,
        2.220446049250313e-16,
        0.0,
        0.0,
        0.0,
        0.0,
        1.0
      ],
      "name": "GLTF_SceneRootNode"
    },
    {
      "children": [
        4
      ],
      "matrix": [
        0.029999971389770508,
        0.0,
        0.0,
        0.0,
        0.0,
        -5.057617084620449e-09,
        0.02999997138977008,
        0.0,
        0.0,
        -0.02999997138977008,
        -5.057617084620449e-09,
        0.0,
        0.0,
        0.0,
        0.0,
        1.0
      ],
      "name": "VR Gallery_0"
    },
    {
      "mesh": 0,
      "name": "Object_4"
    }
  ],
  "samplers": [
    {
      "magFilter": 9729,
      "minFilter": 9987,
      "wrapS": 10497,
      "wrapT": 10497
    }
  ],
  "scene": 0,
  "scenes": [
    {
      "name": "Sketchfab_Scene",
      "nodes": [
        0
      ]
    }
  ],
  "textures": [
    {
      "sampler": 0,
      "source": 0
    },
    {
      "sampler": 0,
      "source": 1
    }
  ]
}
