{
  "accessors": [
    {
      "bufferView": 2,
      "componentType": 5126,
      "count": 40853,
      "max": [
        129.8279571533203,
        65.08070373535156,
        122.68939971923828
      ],
      "min": [
        -206.50454711914063,
        -83.26361083984375,
        -5.5777788162231445
      ],
      "type": "VEC3"
    },
    {
      "bufferView": 2,
      "byteOffset": 490236,
      "componentType": 5126,
      "count": 40853,
      "max": [
        0.9998871088027954,
        0.9999070167541504,
        0.9999908208847046
      ],
      "min": [
        -0.99979168176651,
        -0.9999939799308777,
        -0.9999952912330627
      ],
      "type": "VEC3"
    },
    {
      "bufferView": 1,
      "componentType": 5126,
      "count": 40853,
      "max": [
        0.9883620142936707,
        0.9931280016899109
      ],
      "min": [
        0.0068720001727342606,
        0.00356299988925457
      ],
      "type": "VEC2"
    },
    {
      "bufferView": 0,
      "componentType": 5125,
      "count": 162516,
      "type": "SCALAR"
    }
  ],
  "asset": {
    "extras": {
      "author": "Reality_3D (https://sketchfab.com/Sbell_Reality3D)",
      "license": "CC-BY-4.0 (http://creativecommons.org/licenses/by/4.0/)",
      "source": "https://sketchfab.com/3d-models/dress-shoe-left-32ba2d850eaa4ba0b73e5152825b8468",
      "title": "Dress Shoe Left"
    },
    "generator": "Sketchfab-12.67.0",
    "version": "2.0"
  },
  "bufferViews": [
    {
      "buffer": 0,
      "byteLength": 650064,
      "name": "floatBufferViews",
      "target": 34963
    },
    {
      "buffer": 0,
      "byteLength": 326824,
      "byteOffset": 650064,
      "byteStride": 8,
      "name": "floatBufferViews",
      "target": 34962
    },
    {
      "buffer": 0,
      "byteLength": 980472,
      "byteOffset": 976888,
      "byteStride": 12,
      "name": "floatBufferViews",
      "target": 34962
    }
  ],
  "buffers": [
    {
      "byteLength": 1957360,
      "uri": "scene.bin"
    }
  ],
  "extensionsRequired": [
    "KHR_materials_pbrSpecularGlossiness"
  ],
  "extensionsUsed": [
    "KHR_materials_pbrSpecularGlossiness"
  ],
  "images": [
    {
      "uri": "textures/material_0_diffuse.png"
    }
  ],
  "materials": [
    {
      "doubleSided": true,
      "extensions": {
        "KHR_materials_pbrSpecularGlossiness": {
          "diffuseFactor": [
            0.9163490853658537,
            0.9163490853658537,
            0.9163490853658537,
            1.0
          ],
          "diffuseTexture": {
            "index": 0
          },
          "glossinessFactor": 0.5623413251903491,
          "specularFactor": [
            0.0,
            0.0,
            0.0
          ]
        }
      },
      "name": "material_0"
    }
  ],
  "meshes": [
    {
      "name": "Object_0",
      "primitives": [
        {
          "attributes": {
            "NORMAL": 1,
            "POSITION": 0,
            "TEXCOORD_0": 2
          },
          "indices": 3,
          "material": 0,
          "mode": 4
        }
      ]
    }
  ],
  "nodes": [
    {
      "children": [
        1
      ],
      "matrix": [
        0.7872076034545898,
        1.3693225946052645e-16,
        -0.616688072681427,
        0.0,
        -0.616688072681427,
        1.7479520130305511e-16,
        -0.7872076034545898,
        0.0,
        0.0,
        1.0,
        2.220446049250313e-16,
        0.0,
        -13.764732360839844,
        4.820232839313149e-15,
        -21.708398818969727,
        1.0
      ],
      "name": "Sketchfab_model"
    },
    {
      "children": [
        2
      ],
      "name": "Dress_Shoe_Left.obj.cleaner.materialmerger.gles"
    },
    {
      "mesh": 0,
      "name": "Object_2"
    }
  ],
  "samplers": [
    {
      "magFilter": 9729,
      "minFilter": 9987,
      "wrapS": 10497,
      "wrapT": 10497
    }
  ],
  "scene": 0,
  "scenes": [
    {
      "name": "Sketchfab_Scene",
      "nodes": [
        0
      ]
    }
  ],
  "textures": [
    {
      "sampler": 0,
      "source": 0
    }
  ]
}
